<svg width="419" height="382" viewBox="0 0 419 382" fill="none" xmlns="http://www.w3.org/2000/svg">
<path fill-rule="evenodd" clip-rule="evenodd" d="M44 88C68.3005 88 88 68.3005 88 44C88 19.6995 68.3005 0 44 0C19.6995 0 0 19.6995 0 44C0 68.3005 19.6995 88 44 88Z" fill="url(#paint0_linear_12_6)"/>
<path opacity="0.3" fill-rule="evenodd" clip-rule="evenodd" d="M353 382C389.451 382 419 352.451 419 316C419 279.549 389.451 250 353 250C316.549 250 287 279.549 287 316C287 352.451 316.549 382 353 382Z" fill="url(#paint1_linear_12_6)"/>
<defs>
<linearGradient id="paint0_linear_12_6" x1="45.5439" y1="106.959" x2="90.3718" y2="44.6021" gradientUnits="userSpaceOnUse">
<stop stop-color="#FFD7A9"/>
<stop offset="1" stop-color="#FFAE70"/>
</linearGradient>
<linearGradient id="paint1_linear_12_6" x1="355.316" y1="410.438" x2="422.558" y2="316.903" gradientUnits="userSpaceOnUse">
<stop stop-color="#FFD7A9"/>
<stop offset="1" stop-color="#FFAE70"/>
</linearGradient>
</defs>
</svg>
