<svg width="150" height="31" viewBox="0 0 150 31" fill="none" xmlns="http://www.w3.org/2000/svg">
<path d="M21.569 25.4149L1.53545 11.5958C-0.494696 10.1955 0.195421 7.27978 2.72697 6.59413L24.019 0.815233C24.9341 0.485039 25.9522 0.616661 26.7533 1.1687C27.5543 1.72074 28.0398 2.62536 28.057 3.59804L26.7951 23.1949C26.6454 25.521 23.5991 26.8152 21.569 25.4149Z" fill="url(#paint0_linear_0_219)"/>
<path d="M15.215 28.8263L3.41262 5.74535C2.86255 4.66875 2.96201 3.37474 3.67014 2.39485C4.37827 1.41496 5.57568 0.914394 6.77052 1.09878L28.6432 4.47455C29.6648 4.63222 30.5485 5.27081 31.0189 6.19123C31.4893 7.11165 31.4891 8.20195 31.0184 9.12223L20.9425 28.8274C20.3909 29.9009 19.2852 30.5756 18.0784 30.5754C16.8715 30.5751 15.7662 29.8999 15.215 28.8263Z" fill="url(#paint1_linear_0_219)"/>
<path d="M28.0033 4.37524L17.0999 2.69238L3.71301 6.32722L9.05639 16.7806L21.569 25.4149C21.845 25.6032 22.1486 25.7475 22.469 25.8426L27.2217 16.5483L28.0033 4.37524Z" fill="#001A49"/>
<path fill-rule="evenodd" clip-rule="evenodd" d="M85.2808 5.02393C84.1491 5.02393 83.2317 5.94135 83.2317 7.07306C83.2432 8.19997 84.1539 9.1107 85.2808 9.12219C86.4126 9.12219 87.33 8.20477 87.33 7.07306C87.33 5.94135 86.4126 5.02393 85.2808 5.02393ZM86.9894 10.1239H83.5734V21.5075H86.9894V10.1239Z" fill="#001A49"/>
<path fill-rule="evenodd" clip-rule="evenodd" d="M100.271 19.9527C101.292 18.8244 101.821 17.3355 101.741 15.8158C101.821 14.2961 101.292 12.8073 100.271 11.6792C99.2494 10.551 97.8205 9.87673 96.3004 9.8057C95.0185 9.73563 93.773 10.2452 92.9079 11.1938V10.124H89.493V26.0614H92.9079V20.4377C93.7728 21.3867 95.0183 21.8967 96.3004 21.8269C97.8205 21.7556 99.2495 21.0811 100.271 19.9527ZM95.5712 13.174C97.059 13.1491 98.2887 14.3282 98.3261 15.8158C98.3781 16.5552 98.1119 17.2816 97.5944 17.8123C97.0769 18.343 96.3575 18.6274 95.617 18.5941C94.129 18.5942 92.9192 17.3947 92.9066 15.9068C92.894 14.4188 94.0834 13.199 95.5712 13.174Z" fill="#001A49"/>
<path d="M112.281 18.0907C112.281 20.7093 110.004 21.8249 107.546 21.8249C105.513 22.0088 103.574 20.935 102.651 19.1147L105.61 17.4307C105.858 18.2782 106.665 18.8368 107.546 18.7707C108.365 18.7707 108.774 18.5195 108.774 18.065C108.774 16.812 103.174 17.4731 103.174 13.5334C103.174 11.0521 105.267 9.80031 107.64 9.80031C109.453 9.74341 111.153 10.6764 112.079 12.2358L109.166 13.807C108.905 13.1961 108.305 12.8003 107.64 12.802C107.049 12.802 106.685 13.0253 106.685 13.4396C106.681 14.7462 112.281 13.8807 112.281 18.0907Z" fill="#001A49"/>
<path d="M124.763 10.124V21.5076H121.348V20.4356C120.548 21.3935 119.337 21.91 118.092 21.8247C115.792 21.8247 113.835 20.1854 113.835 17.1112V10.124H117.25V16.6131C117.191 17.1623 117.378 17.7092 117.76 18.1083C118.141 18.5074 118.679 18.7182 119.231 18.6846C120.482 18.6846 121.352 17.9565 121.352 16.3395V10.124H124.763Z" fill="#001A49"/>
<path d="M144.336 14.5172V21.5077H140.921V14.8143C140.921 13.6764 140.374 12.9471 139.282 12.9471C138.143 12.9471 137.506 13.7445 137.506 15.0879V21.5077H134.09V14.8143C134.09 13.6764 133.544 12.9471 132.451 12.9471C131.313 12.9471 130.676 13.7445 130.676 15.0879V21.5077H127.261V10.1241H130.681V11.1671C131.4 10.2235 132.549 9.70918 133.732 9.80142C134.921 9.74328 136.053 10.3135 136.715 11.3034C137.484 10.2684 138.731 9.70115 140.017 9.80142C142.63 9.80589 144.336 11.6719 144.336 14.5172Z" fill="#001A49"/>
<path d="M147.229 10.0537C148.629 10.0537 149.764 8.91877 149.764 7.51878C149.764 6.1188 148.629 4.98389 147.229 4.98389C145.829 4.98389 144.695 6.1188 144.695 7.51878C144.695 8.91877 145.829 10.0537 147.229 10.0537Z" fill="#001A49"/>
<path fill-rule="evenodd" clip-rule="evenodd" d="M36.6075 4.8877H40.0235V21.5075H36.6075V4.8877ZM41.9576 15.8157C41.9499 13.375 43.4142 11.1704 45.6669 10.231C47.9196 9.29168 50.5164 9.8029 52.2449 11.526C53.9735 13.2491 54.4929 15.8443 53.5606 18.0999C52.6284 20.3556 50.4284 21.8268 47.9877 21.8268C46.3865 21.844 44.8457 21.2168 43.7116 20.0863C42.5775 18.9558 41.9455 17.4169 41.9576 15.8157ZM47.9468 13.2655C49.3839 13.2408 50.5723 14.3789 50.6097 15.8157H50.6142C50.6516 16.5279 50.3894 17.2233 49.8912 17.7337C49.393 18.244 48.704 18.5228 47.9911 18.5024C46.5538 18.5019 45.3855 17.3431 45.3734 15.9059C45.3613 14.4687 46.5098 13.2903 47.9468 13.2655ZM67.6382 10.1205V20.9357C67.6382 24.7604 64.6555 26.3762 61.6281 26.3762C59.4557 26.5402 57.3735 25.4772 56.2323 23.6214L59.1457 21.9363C59.6273 22.9092 60.6621 23.4811 61.742 23.3712C62.4239 23.4643 63.1111 23.243 63.6104 22.7695C64.1097 22.296 64.3672 21.6215 64.3104 20.9357V19.8883C63.4993 20.8802 62.266 21.4291 60.986 21.3679C57.8622 21.2708 55.3802 18.7104 55.3802 15.5851C55.3802 12.4597 57.8622 9.89935 60.986 9.80227C62.266 9.74102 63.4993 10.2899 64.3104 11.2819V10.1205H67.6382ZM62.6924 12.9571C63.7188 13.4198 64.3609 14.4597 64.3149 15.5845V15.5879C64.335 16.3149 64.0469 17.0166 63.5218 17.5198C62.9966 18.0231 62.2833 18.281 61.5578 18.23C60.432 18.2295 59.4195 17.5449 58.9997 16.5003C58.5799 15.4558 58.837 14.2609 59.6493 13.4815C60.4617 12.7021 61.6661 12.4945 62.6924 12.9571ZM69.5723 15.8079C69.5646 13.3672 71.0289 11.1625 73.2816 10.2232C75.5343 9.28386 78.1311 9.79508 79.8597 11.5182C81.5882 13.2413 82.1076 15.8365 81.1754 18.0921C80.2432 20.3477 78.0431 21.819 75.6025 21.819C74.0026 21.8361 72.463 21.21 71.3291 20.0812C70.1953 18.9524 69.5623 17.4156 69.5723 15.8157V15.8079ZM75.5608 13.2555C76.9988 13.2309 78.1877 14.3701 78.2245 15.8079V15.8157C78.2595 16.5258 77.997 17.2184 77.5 17.7268C77.003 18.2353 76.3165 18.5135 75.6058 18.4946C74.1676 18.4948 72.9982 17.3355 72.9859 15.8974C72.9735 14.4592 74.1228 13.28 75.5608 13.2555Z" fill="#001A49"/>
<defs>
<linearGradient id="paint0_linear_0_219" x1="14.689" y1="31.4571" x2="27.2034" y2="12.4358" gradientUnits="userSpaceOnUse">
<stop stop-color="#FFD7A9"/>
<stop offset="1" stop-color="#FFAE70"/>
</linearGradient>
<linearGradient id="paint1_linear_0_219" x1="19.0239" y1="37.5526" x2="39.0399" y2="17.7448" gradientUnits="userSpaceOnUse">
<stop stop-color="#CD10FF"/>
<stop offset="1" stop-color="#9F06FF"/>
</linearGradient>
</defs>
</svg>
